ffmpeg started on 2025-06-16 at 16:58:33
Report written to "D:\Convert\FFMetrics\reports\ssim_report-6.txt"
Log level: 32
Command line:
ffmpeg -hide_banner -nostdin -i "G:\\\xc0\xed\xe8\xec\xe5\\[\xd2\xee\xef]\\\xd0\xfb\xf6\xe0\xf0\xfc-\xe2\xe0\xec\xef\xe8\xf0\\\xd2\xc2-2\\[JamClub] Vampire Knight Guilty - 06_HEVC.mkv" -i "G:\\\xc0\xed\xe8\xec\xe5\\[\xd2\xee\xef]\\\xd0\xfb\xf6\xe0\xf0\xfc-\xe2\xe0\xec\xef\xe8\xf0\\\xd2\xc2-2\\[JamClub] Vampire Knight Guilty - 06.mp4" -lavfi "[0:v]settb=AVTB,setpts=PTS-STARTPTS,format=pix_fmts=yuv420p10,fps=24000/1001,scale=1920:1080:flags=bicubic[main];[1:v]settb=AVTB,setpts=PTS-STARTPTS,format=pix_fmts=yuv420p,fps=24000/1001,scale=1920:1080:flags=bicubic[ref];[main][ref]ssim=eof_action=endall:stats_file='D\\:/Convert/FFMetrics/logs/ssim_logfile-6.txt'" -f null -
Input #0, matroska,webm, from 'G:\Аниме\[Топ]\Рыцарь-вампир\ТВ-2\[JamClub] Vampire Knight Guilty - 06_HEVC.mkv':
  Metadata:
    COMPATIBLE_BRANDS: isomiso2avc1mp41
    MAJOR_BRAND     : isom
    MINOR_VERSION   : 512
    ENCODER         : Lavf61.7.100
  Duration: 00:24:23.03, start: -0.001000, bitrate: 1031 kb/s
  Stream #0:0: Video: hevc (Main 10), yuv420p10le(tv, bt709, progressive), 1920x1080 [SAR 1:1 DAR 16:9], 23.98 fps, 23.98 tbr, 1k tbn (default)
      Metadata:
        HANDLER_NAME    : VideoHandler
        VENDOR_ID       : [0][0][0][0]
        ENCODER         : Lavc61.19.100 libx265
        BPS             : 832739
        DURATION        : 00:24:22.961708333
        NUMBER_OF_FRAMES: 43712
        NUMBER_OF_BYTES : 152283236
        _STATISTICS_WRITING_APP: mkvpropedit v66.0.0 ('Josie') 64-bit
        _STATISTICS_WRITING_DATE_UTC: 2025-06-16 11:11:12
        _STATISTICS_TAGS: BPS DURATION NUMBER_OF_FRAMES NUMBER_OF_BYTES
  Stream #0:1(eng): Audio: aac (LC), 48000 Hz, stereo, fltp (default)
      Metadata:
        HANDLER_NAME    : SoundHandler
        VENDOR_ID       : [0][0][0][0]
        ENCODER         : Lavc61.19.100 aac
        BPS             : 194911
        DURATION        : 00:24:22.992000000
        NUMBER_OF_FRAMES: 68579
        NUMBER_OF_BYTES : 35644263
        _STATISTICS_WRITING_APP: mkvpropedit v66.0.0 ('Josie') 64-bit
        _STATISTICS_WRITING_DATE_UTC: 2025-06-16 11:11:12
        _STATISTICS_TAGS: BPS DURATION NUMBER_OF_FRAMES NUMBER_OF_BYTES
Input #1, mov,mp4,m4a,3gp,3g2,mj2, from 'G:\Аниме\[Топ]\Рыцарь-вампир\ТВ-2\[JamClub] Vampire Knight Guilty - 06.mp4':
  Metadata:
    major_brand     : isom
    minor_version   : 512
    compatible_brands: isomiso2avc1mp41
    encoder         : Lavf60.16.100
  Duration: 00:24:23.01, start: 0.000000, bitrate: 3424 kb/s
  Stream #1:0[0x1](und): Video: h264 (High) (avc1 / 0x31637661), yuv420p(progressive), 1920x1080 [SAR 1:1 DAR 16:9], 3223 kb/s, 29.88 fps, 23.98 tbr, 90k tbn (default)
      Metadata:
        handler_name    : VideoHandler
        vendor_id       : [0][0][0][0]
  Stream #1:1[0x2](eng): Audio: aac (LC) (mp4a / 0x6134706D), 48000 Hz, stereo, fltp, 191 kb/s (default)
      Metadata:
        handler_name    : SoundHandler
        vendor_id       : [0][0][0][0]
Stream mapping:
  Stream #0:0 (hevc) -> settb:default
  Stream #1:0 (h264) -> settb:default
  ssim:default -> Stream #0:0 (wrapped_avframe)
  Stream #0:1 -> #0:1 (aac (native) -> pcm_s16le (native))
Output #0, null, to 'pipe:':
  Metadata:
    COMPATIBLE_BRANDS: isomiso2avc1mp41
    MAJOR_BRAND     : isom
    MINOR_VERSION   : 512
    encoder         : Lavf61.7.100
  Stream #0:0: Video: wrapped_avframe, yuv420p10le(tv, bt709, progressive), 1920x1080 [SAR 1:1 DAR 16:9], q=2-31, 200 kb/s, 23.98 fps, 23.98 tbn
      Metadata:
        encoder         : Lavc61.19.100 wrapped_avframe
  Stream #0:1(eng): Audio: pcm_s16le, 48000 Hz, stereo, s16, 1536 kb/s (default)
      Metadata:
        HANDLER_NAME    : SoundHandler
        VENDOR_ID       : [0][0][0][0]
        _STATISTICS_TAGS: BPS DURATION NUMBER_OF_FRAMES NUMBER_OF_BYTES
        BPS             : 194911
        DURATION        : 00:24:22.992000000
        NUMBER_OF_FRAMES: 68579
        NUMBER_OF_BYTES : 35644263
        _STATISTICS_WRITING_APP: mkvpropedit v66.0.0 ('Josie') 64-bit
        _STATISTICS_WRITING_DATE_UTC: 2025-06-16 11:11:12
        encoder         : Lavc61.19.100 pcm_s16le
frame=  113 fps=0.0 q=-0.0 size=N/A time=00:00:04.71 bitrate=N/A speed= 9.1x    frame=  275 fps=267 q=-0.0 size=N/A time=00:00:11.46 bitrate=N/A speed=11.1x    frame=  484 fps=311 q=-0.0 size=N/A time=00:00:20.18 bitrate=N/A speed=  13x    frame=  720 fps=348 q=-0.0 size=N/A time=00:00:30.03 bitrate=N/A speed=14.5x    frame=  964 fps=372 q=-0.0 size=N/A time=00:00:40.20 bitrate=N/A speed=15.5x    frame= 1207 fps=389 q=-0.0 size=N/A time=00:00:50.34 bitrate=N/A speed=16.2x    frame= 1458 fps=404 q=-0.0 size=N/A time=00:01:00.81 bitrate=N/A speed=16.8x    frame= 1700 fps=411 q=-0.0 size=N/A time=00:01:10.90 bitrate=N/A speed=17.1x    frame= 1917 fps=413 q=-0.0 size=N/A time=00:01:19.95 bitrate=N/A speed=17.2x    frame= 2126 fps=412 q=-0.0 size=N/A time=00:01:28.67 bitrate=N/A speed=17.2x    frame= 2337 fps=411 q=-0.0 size=N/A time=00:01:37.47 bitrate=N/A speed=17.2x    frame= 2533 fps=409 q=-0.0 size=N/A time=00:01:45.64 bitrate=N/A speed=17.1x    frame= 2734 fps=408 q=-0.0 size=N/A time=00:01:54.03 bitrate=N/A speed=  17x    frame= 2962 fps=410 q=-0.0 size=N/A time=00:02:03.54 bitrate=N/A speed=17.1x    frame= 3164 fps=409 q=-0.0 size=N/A time=00:02:11.96 bitrate=N/A speed=17.1x    frame= 3346 fps=406 q=-0.0 size=N/A time=00:02:19.55 bitrate=N/A speed=16.9x    frame= 3520 fps=401 q=-0.0 size=N/A time=00:02:26.81 bitrate=N/A speed=16.7x    frame= 3749 fps=404 q=-0.0 size=N/A time=00:02:36.36 bitrate=N/A speed=16.8x    frame= 3977 fps=405 q=-0.0 size=N/A time=00:02:45.87 bitrate=N/A speed=16.9x    frame= 4196 fps=407 q=-0.0 size=N/A time=00:02:55.00 bitrate=N/A speed=  17x    frame= 4443 fps=410 q=-0.0 size=N/A time=00:03:05.31 bitrate=N/A speed=17.1x    frame= 4642 fps=409 q=-0.0 size=N/A time=00:03:13.61 bitrate=N/A speed=17.1x    frame= 4902 fps=413 q=-0.0 size=N/A time=00:03:24.45 bitrate=N/A speed=17.2x    frame= 5129 fps=414 q=-0.0 size=N/A time=00:03:33.92 bitrate=N/A speed=17.3x    frame= 5367 fps=416 q=-0.0 size=N/A time=00:03:43.84 bitrate=N/A speed=17.4x    frame= 5593 fps=417 q=-0.0 size=N/A time=00:03:53.27 bitrate=N/A speed=17.4x    frame= 5814 fps=417 q=-0.0 size=N/A time=00:04:02.49 bitrate=N/A speed=17.4x    frame= 6036 fps=418 q=-0.0 size=N/A time=00:04:11.75 bitrate=N/A speed=17.4x    frame= 6261 fps=418 q=-0.0 size=N/A time=00:04:21.13 bitrate=N/A speed=17.5x    frame= 6490 fps=420 q=-0.0 size=N/A time=00:04:30.68 bitrate=N/A speed=17.5x    frame= 6721 fps=420 q=-0.0 size=N/A time=00:04:40.32 bitrate=N/A speed=17.5x    frame= 6961 fps=422 q=-0.0 size=N/A time=00:04:50.33 bitrate=N/A speed=17.6x    frame= 7202 fps=423 q=-0.0 size=N/A time=00:05:00.38 bitrate=N/A speed=17.7x    frame= 7451 fps=425 q=-0.0 size=N/A time=00:05:10.76 bitrate=N/A speed=17.7x    frame= 7666 fps=425 q=-0.0 size=N/A time=00:05:19.73 bitrate=N/A speed=17.7x    frame= 7887 fps=425 q=-0.0 size=N/A time=00:05:28.95 bitrate=N/A speed=17.7x    frame= 8121 fps=425 q=-0.0 size=N/A time=00:05:38.71 bitrate=N/A speed=17.7x    frame= 8320 fps=425 q=-0.0 size=N/A time=00:05:47.01 bitrate=N/A speed=17.7x    frame= 8512 fps=423 q=-0.0 size=N/A time=00:05:55.02 bitrate=N/A speed=17.7x    frame= 8761 fps=425 q=-0.0 size=N/A time=00:06:05.40 bitrate=N/A speed=17.7x    frame= 9008 fps=426 q=-0.0 size=N/A time=00:06:15.70 bitrate=N/A speed=17.8x    frame= 9233 fps=426 q=-0.0 size=N/A time=00:06:25.09 bitrate=N/A speed=17.8x    frame= 9467 fps=427 q=-0.0 size=N/A time=00:06:34.85 bitrate=N/A speed=17.8x    frame= 9685 fps=427 q=-0.0 size=N/A time=00:06:43.94 bitrate=N/A speed=17.8x    frame= 9922 fps=428 q=-0.0 size=N/A time=00:06:53.83 bitrate=N/A speed=17.8x    frame=10170 fps=429 q=-0.0 size=N/A time=00:07:04.17 bitrate=N/A speed=17.9x    frame=10417 fps=430 q=-0.0 size=N/A time=00:07:14.47 bitrate=N/A speed=17.9x    frame=10657 fps=431 q=-0.0 size=N/A time=00:07:24.48 bitrate=N/A speed=  18x    frame=10891 fps=431 q=-0.0 size=N/A time=00:07:34.24 bitrate=N/A speed=  18x    frame=11127 fps=432 q=-0.0 size=N/A time=00:07:44.08 bitrate=N/A speed=  18x    frame=11342 fps=431 q=-0.0 size=N/A time=00:07:53.05 bitrate=N/A speed=  18x    frame=11566 fps=431 q=-0.0 size=N/A time=00:08:02.39 bitrate=N/A speed=  18x    frame=11791 fps=431 q=-0.0 size=N/A time=00:08:11.78 bitrate=N/A speed=  18x    frame=12016 fps=431 q=-0.0 size=N/A time=00:08:21.16 bitrate=N/A speed=  18x    frame=12253 fps=432 q=-0.0 size=N/A time=00:08:31.05 bitrate=N/A speed=  18x    frame=12474 fps=432 q=-0.0 size=N/A time=00:08:40.26 bitrate=N/A speed=  18x    frame=12697 fps=432 q=-0.0 size=N/A time=00:08:49.57 bitrate=N/A speed=  18x    frame=12918 fps=432 q=-0.0 size=N/A time=00:08:58.78 bitrate=N/A speed=  18x    frame=13145 fps=432 q=-0.0 size=N/A time=00:09:08.25 bitrate=N/A speed=  18x    frame=13379 fps=432 q=-0.0 size=N/A time=00:09:18.01 bitrate=N/A speed=  18x    frame=13624 fps=433 q=-0.0 size=N/A time=00:09:28.23 bitrate=N/A speed=18.1x    frame=13860 fps=434 q=-0.0 size=N/A time=00:09:38.07 bitrate=N/A speed=18.1x    frame=14097 fps=434 q=-0.0 size=N/A time=00:09:47.96 bitrate=N/A speed=18.1x    frame=14345 fps=435 q=-0.0 size=N/A time=00:09:58.30 bitrate=N/A speed=18.1x    frame=14578 fps=435 q=-0.0 size=N/A time=00:10:08.02 bitrate=N/A speed=18.1x    frame=14831 fps=436 q=-0.0 size=N/A time=00:10:18.57 bitrate=N/A speed=18.2x    frame=15063 fps=436 q=-0.0 size=N/A time=00:10:28.25 bitrate=N/A speed=18.2x    frame=15302 fps=436 q=-0.0 size=N/A time=00:10:38.22 bitrate=N/A speed=18.2x    frame=15560 fps=437 q=-0.0 size=N/A time=00:10:48.98 bitrate=N/A speed=18.2x    frame=15795 fps=438 q=-0.0 size=N/A time=00:10:58.78 bitrate=N/A speed=18.2x    frame=16016 fps=437 q=-0.0 size=N/A time=00:11:08.00 bitrate=N/A speed=18.2x    frame=16248 fps=438 q=-0.0 size=N/A time=00:11:17.67 bitrate=N/A speed=18.2x    frame=16469 fps=437 q=-0.0 size=N/A time=00:11:26.89 bitrate=N/A speed=18.2x    frame=16705 fps=438 q=-0.0 size=N/A time=00:11:36.73 bitrate=N/A speed=18.3x    frame=16943 fps=438 q=-0.0 size=N/A time=00:11:46.66 bitrate=N/A speed=18.3x    frame=17189 fps=439 q=-0.0 size=N/A time=00:11:56.92 bitrate=N/A speed=18.3x    frame=17421 fps=439 q=-0.0 size=N/A time=00:12:06.60 bitrate=N/A speed=18.3x    frame=17639 fps=439 q=-0.0 size=N/A time=00:12:15.69 bitrate=N/A speed=18.3x    frame=17882 fps=439 q=-0.0 size=N/A time=00:12:25.82 bitrate=N/A speed=18.3x    frame=18109 fps=439 q=-0.0 size=N/A time=00:12:35.29 bitrate=N/A speed=18.3x    frame=18350 fps=439 q=-0.0 size=N/A time=00:12:45.34 bitrate=N/A speed=18.3x    frame=18556 fps=439 q=-0.0 size=N/A time=00:12:53.93 bitrate=N/A speed=18.3x    frame=18770 fps=439 q=-0.0 size=N/A time=00:13:02.86 bitrate=N/A speed=18.3x    frame=19002 fps=439 q=-0.0 size=N/A time=00:13:12.54 bitrate=N/A speed=18.3x    frame=19215 fps=438 q=-0.0 size=N/A time=00:13:21.42 bitrate=N/A speed=18.3x    frame=19435 fps=438 q=-0.0 size=N/A time=00:13:30.60 bitrate=N/A speed=18.3x    frame=19635 fps=438 q=-0.0 size=N/A time=00:13:38.94 bitrate=N/A speed=18.3x    frame=19859 fps=438 q=-0.0 size=N/A time=00:13:48.28 bitrate=N/A speed=18.2x    frame=20079 fps=437 q=-0.0 size=N/A time=00:13:57.46 bitrate=N/A speed=18.2x    frame=20300 fps=437 q=-0.0 size=N/A time=00:14:06.67 bitrate=N/A speed=18.2x    frame=20531 fps=437 q=-0.0 size=N/A time=00:14:16.31 bitrate=N/A speed=18.2x    frame=20758 fps=438 q=-0.0 size=N/A time=00:14:25.78 bitrate=N/A speed=18.2x    frame=20985 fps=438 q=-0.0 size=N/A time=00:14:35.24 bitrate=N/A speed=18.3x    frame=21233 fps=438 q=-0.0 size=N/A time=00:14:45.59 bitrate=N/A speed=18.3x    frame=21446 fps=438 q=-0.0 size=N/A time=00:14:54.47 bitrate=N/A speed=18.3x    frame=21687 fps=438 q=-0.0 size=N/A time=00:15:04.52 bitrate=N/A speed=18.3x    frame=21937 fps=438 q=-0.0 size=N/A time=00:15:14.95 bitrate=N/A speed=18.3x    frame=22182 fps=439 q=-0.0 size=N/A time=00:15:25.17 bitrate=N/A speed=18.3x    frame=22424 fps=439 q=-0.0 size=N/A time=00:15:35.26 bitrate=N/A speed=18.3x    frame=22660 fps=439 q=-0.0 size=N/A time=00:15:45.11 bitrate=N/A speed=18.3x    frame=22903 fps=440 q=-0.0 size=N/A time=00:15:55.24 bitrate=N/A speed=18.3x    frame=23149 fps=440 q=-0.0 size=N/A time=00:16:05.50 bitrate=N/A speed=18.4x    frame=23394 fps=440 q=-0.0 size=N/A time=00:16:15.72 bitrate=N/A speed=18.4x    frame=23626 fps=441 q=-0.0 size=N/A time=00:16:25.40 bitrate=N/A speed=18.4x    frame=23839 fps=440 q=-0.0 size=N/A time=00:16:34.28 bitrate=N/A speed=18.4x    frame=24058 fps=440 q=-0.0 size=N/A time=00:16:43.41 bitrate=N/A speed=18.4x    frame=24294 fps=440 q=-0.0 size=N/A time=00:16:53.26 bitrate=N/A speed=18.4x    frame=24533 fps=441 q=-0.0 size=N/A time=00:17:03.23 bitrate=N/A speed=18.4x    frame=24778 fps=441 q=-0.0 size=N/A time=00:17:13.44 bitrate=N/A speed=18.4x    frame=24988 fps=441 q=-0.0 size=N/A time=00:17:22.20 bitrate=N/A speed=18.4x    frame=25216 fps=441 q=-0.0 size=N/A time=00:17:31.71 bitrate=N/A speed=18.4x    frame=25455 fps=441 q=-0.0 size=N/A time=00:17:41.68 bitrate=N/A speed=18.4x    frame=25696 fps=441 q=-0.0 size=N/A time=00:17:51.73 bitrate=N/A speed=18.4x    frame=25927 fps=441 q=-0.0 size=N/A time=00:18:01.37 bitrate=N/A speed=18.4x    frame=26157 fps=441 q=-0.0 size=N/A time=00:18:10.96 bitrate=N/A speed=18.4x    frame=26384 fps=441 q=-0.0 size=N/A time=00:18:20.43 bitrate=N/A speed=18.4x    frame=26627 fps=441 q=-0.0 size=N/A time=00:18:30.56 bitrate=N/A speed=18.4x    frame=26866 fps=442 q=-0.0 size=N/A time=00:18:40.53 bitrate=N/A speed=18.4x    frame=27078 fps=441 q=-0.0 size=N/A time=00:18:49.37 bitrate=N/A speed=18.4x    frame=27297 fps=441 q=-0.0 size=N/A time=00:18:58.51 bitrate=N/A speed=18.4x    frame=27536 fps=441 q=-0.0 size=N/A time=00:19:08.48 bitrate=N/A speed=18.4x    frame=27754 fps=441 q=-0.0 size=N/A time=00:19:17.57 bitrate=N/A speed=18.4x    frame=27985 fps=441 q=-0.0 size=N/A time=00:19:27.20 bitrate=N/A speed=18.4x    frame=28226 fps=441 q=-0.0 size=N/A time=00:19:37.25 bitrate=N/A speed=18.4x    frame=28472 fps=442 q=-0.0 size=N/A time=00:19:47.51 bitrate=N/A speed=18.4x    frame=28697 fps=442 q=-0.0 size=N/A time=00:19:56.90 bitrate=N/A speed=18.4x    frame=28933 fps=442 q=-0.0 size=N/A time=00:20:06.74 bitrate=N/A speed=18.4x    frame=29173 fps=442 q=-0.0 size=N/A time=00:20:16.75 bitrate=N/A speed=18.4x    frame=29408 fps=442 q=-0.0 size=N/A time=00:20:26.55 bitrate=N/A speed=18.4x    frame=29617 fps=442 q=-0.0 size=N/A time=00:20:35.27 bitrate=N/A speed=18.4x    frame=29853 fps=442 q=-0.0 size=N/A time=00:20:45.11 bitrate=N/A speed=18.4x    frame=30087 fps=442 q=-0.0 size=N/A time=00:20:54.87 bitrate=N/A speed=18.4x    frame=30304 fps=442 q=-0.0 size=N/A time=00:21:03.92 bitrate=N/A speed=18.4x    frame=30545 fps=442 q=-0.0 size=N/A time=00:21:13.98 bitrate=N/A speed=18.4x    frame=30776 fps=442 q=-0.0 size=N/A time=00:21:23.61 bitrate=N/A speed=18.4x    frame=31027 fps=442 q=-0.0 size=N/A time=00:21:34.08 bitrate=N/A speed=18.5x    frame=31275 fps=443 q=-0.0 size=N/A time=00:21:44.42 bitrate=N/A speed=18.5x    frame=31498 fps=443 q=-0.0 size=N/A time=00:21:53.72 bitrate=N/A speed=18.5x    frame=31730 fps=443 q=-0.0 size=N/A time=00:22:03.40 bitrate=N/A speed=18.5x    frame=31972 fps=443 q=-0.0 size=N/A time=00:22:13.49 bitrate=N/A speed=18.5x    frame=32208 fps=443 q=-0.0 size=N/A time=00:22:23.34 bitrate=N/A speed=18.5x    frame=32457 fps=443 q=-0.0 size=N/A time=00:22:33.72 bitrate=N/A speed=18.5x    frame=32686 fps=443 q=-0.0 size=N/A time=00:22:43.27 bitrate=N/A speed=18.5x    frame=32907 fps=443 q=-0.0 size=N/A time=00:22:52.49 bitrate=N/A speed=18.5x    frame=33123 fps=443 q=-0.0 size=N/A time=00:23:01.50 bitrate=N/A speed=18.5x    frame=33319 fps=443 q=-0.0 size=N/A time=00:23:09.67 bitrate=N/A speed=18.5x    frame=33524 fps=442 q=-0.0 size=N/A time=00:23:18.23 bitrate=N/A speed=18.4x    frame=33728 fps=442 q=-0.0 size=N/A time=00:23:26.73 bitrate=N/A speed=18.4x    frame=33940 fps=442 q=-0.0 size=N/A time=00:23:35.58 bitrate=N/A speed=18.4x    frame=34147 fps=442 q=-0.0 size=N/A time=00:23:44.21 bitrate=N/A speed=18.4x    frame=34384 fps=442 q=-0.0 size=N/A time=00:23:54.09 bitrate=N/A speed=18.4x    frame=34579 fps=441 q=-0.0 size=N/A time=00:24:02.23 bitrate=N/A speed=18.4x    frame=34775 fps=441 q=-0.0 size=N/A time=00:24:10.40 bitrate=N/A speed=18.4x    frame=35003 fps=441 q=-0.0 size=N/A time=00:24:19.91 bitrate=N/A speed=18.4x    [Parsed_ssim_10 @ 00000178bf5f8380] SSIM Y:0.995357 (23.331741) U:0.995330 (23.306492) V:0.995835 (23.803890) All:0.995432 (23.402662)
[out#0/null @ 00000178b4a9fb80] video:15072KiB audio:274316KiB subtitle:0KiB other streams:0KiB global headers:0KiB muxing overhead: unknown
frame=35076 fps=441 q=-0.0 Lsize=N/A time=00:24:22.96 bitrate=N/A speed=18.4x    
